<mxfile host="app.diagrams.net" modified="2025-03-29T10:04:00.000Z" agent="Mozilla/5.0" etag="123456789" version="21.0.0" type="device">
  <diagram id="network-components-legend" name="Legend for IoT Network Components">
    <mxGraphModel dx="1400" dy="800" grid="1" gridSize="10" guides="1" tooltips="1" connect="1" arrows="1" fold="1" page="1" pageScale="1" pageWidth="850" pageHeight="1100" math="0" shadow="0">
      <root>
        <mxCell id="0" />
        <mxCell id="1" parent="0" />
        
        <!-- Title -->
        <mxCell id="2" value="Network Components:" style="text;html=1;strokeColor=none;fillColor=none;align=left;verticalAlign=middle;whiteSpace=wrap;rounded=0;fontSize=14;fontStyle=1" vertex="1" parent="1">
          <mxGeometry x="200" y="140" width="200" height="30" as="geometry" />
        </mxCell>
        
        <!-- Component List -->
        <mxCell id="3" value="• Sensors: Collect environmental data&#xa;• Coordinators: Aggregate local sensor data&#xa;• Gateways: Connect field networks to cloud&#xa;• Cloud: Processes and stores all system data" style="text;html=1;strokeColor=none;fillColor=none;align=left;verticalAlign=top;whiteSpace=wrap;rounded=0;fontSize=12;" vertex="1" parent="1">
          <mxGeometry x="450" y="170" width="300" height="80" as="geometry" />
        </mxCell>
        
        <!-- Gateway -->
        <mxCell id="4" value="Gateway" style="rounded=1;whiteSpace=wrap;html=1;fillColor=#d5e8d4;strokeColor=#82b366;fontSize=12;fontStyle=1" vertex="1" parent="1">
          <mxGeometry x="200" y="180" width="100" height="40" as="geometry" />
        </mxCell>
        
        <!-- Coordinator -->
        <mxCell id="5" value="Coordinator" style="rhombus;whiteSpace=wrap;html=1;fillColor=#ffe6cc;strokeColor=#d79b00;fontSize=12;fontStyle=1" vertex="1" parent="1">
          <mxGeometry x="210" y="240" width="80" height="80" as="geometry" />
        </mxCell>
        
        <!-- Sensor -->
        <mxCell id="6" value="Sensor" style="ellipse;whiteSpace=wrap;html=1;aspect=fixed;fillColor=#f8cecc;strokeColor=#b85450;fontSize=12;fontStyle=1" vertex="1" parent="1">
          <mxGeometry x="220" y="340" width="60" height="60" as="geometry" />
        </mxCell>
        
        <!-- Cloud -->
        <mxCell id="7" value="Cloud Platform" style="ellipse;shape=cloud;whiteSpace=wrap;html=1;fillColor=#dae8fc;strokeColor=#6c8ebf;fontSize=12;fontStyle=1" vertex="1" parent="1">
          <mxGeometry x="190" y="420" width="120" height="80" as="geometry" />
        </mxCell>
      </root>
    </mxGraphModel>
  </diagram>
</mxfile>